HIERARCHY
ROOT root
{
	OFFSET	0	13.1	24.9
	CHANNELS 6  Xposition Yposition Zposition Xrotation Yrotation Zrotation
	JOINT spine_1
	{
		OFFSET	0	9.99999	0
		CHANNELS 3  Xrotation Yrotation Zrotation
		JOINT spine_2
		{
			OFFSET	0	112	-10
			CHANNELS 3  Xrotation Yrotation Zrotation
			JOINT spine_3
			{
				OFFSET	0	206.5	19.3
				CHANNELS 3  Xrotation Yrotation Zrotation
				JOINT spine_4
				{
					OFFSET	0	110.4	14.6
					CHANNELS 3  Xrotation Yrotation Zrotation
					JOINT neck_1
					{
						OFFSET	0	71.8	-50.3
						CHANNELS 3  Xrotation Yrotation Zrotation
						JOINT neck_2
						{
							OFFSET	0	86.2	-25.8
							CHANNELS 3  Xrotation Yrotation Zrotation
							JOINT head_ee
							{
								OFFSET	0	179.8	-8.7
								CHANNELS 3  Xrotation Yrotation Zrotation
								End Site
								{
									OFFSET	1	0	0
								}
							}
						}
					}
					JOINT left_clavicle
					{
						OFFSET	-43.2	22.4	-70.8
						CHANNELS 3  Xrotation Yrotation Zrotation
						JOINT left_shoulder
						{
							OFFSET	-93.9	-5.79999	48.7
							CHANNELS 3  Xrotation Yrotation Zrotation
							JOINT left_elbow
							{
								OFFSET	-291.4	-30.8	15.2
								CHANNELS 3  Xrotation Yrotation Zrotation
								JOINT left_lowarm_twist
								{
									OFFSET	-110.7	-3.89999	13.6
									CHANNELS 3  Xrotation Yrotation Zrotation
									JOINT left_hand
									{
										OFFSET	-110.7	-3.89999	13.6
										CHANNELS 3  Xrotation Yrotation Zrotation
										JOINT left_ee
										{
											OFFSET	-80.8	-5.10001	12.1
											CHANNELS 3  Xrotation Yrotation Zrotation
											End Site
											{
												OFFSET	1	0	0
											}
										}
									}
								}
							}
						}
					}
					JOINT right_clavicle
					{
						OFFSET	43.2	22.4	-70.8
						CHANNELS 3  Xrotation Yrotation Zrotation
						JOINT right_shoulder
						{
							OFFSET	93.9	-5.79999	48.7
							CHANNELS 3  Xrotation Yrotation Zrotation
							JOINT right_elbow
							{
								OFFSET	291.4	-30.8	15.2
								CHANNELS 3  Xrotation Yrotation Zrotation
								JOINT right_lowarm_twist
								{
									OFFSET	110.7	-3.89999	13.6
									CHANNELS 3  Xrotation Yrotation Zrotation
									JOINT right_hand
									{
										OFFSET	110.7	-3.89999	13.6
										CHANNELS 3  Xrotation Yrotation Zrotation
										JOINT right_ee
										{
											OFFSET	80.8	-5.10001	12.1
											CHANNELS 3  Xrotation Yrotation Zrotation
											End Site
											{
												OFFSET	1	0	0
											}
										}
									}
								}
							}
						}
					}
				}
			}
		}
	}
	JOINT left_hip
	{
		OFFSET	-82.8	-127.5	0.300001
		CHANNELS 3  Xrotation Yrotation Zrotation
		JOINT left_knee
		{
			OFFSET	-28.2	-396.7	2.2
			CHANNELS 3  Xrotation Yrotation Zrotation
			JOINT left_ankle
			{
				OFFSET	-11.7	-411.3	35.4
				CHANNELS 3  Xrotation Yrotation Zrotation
				JOINT left_toes
				{
					OFFSET	0	-60	-88.6
					CHANNELS 3  Xrotation Yrotation Zrotation
					JOINT left_foot_ee
					{
						OFFSET	-22.5	-16.5	-42.2
						CHANNELS 3  Xrotation Yrotation Zrotation
						End Site
						{
							OFFSET	1	0	0
						}
					}
				}
			}
		}
	}
	JOINT right_hip
	{
		OFFSET	82.8	-127.5	0.300001
		CHANNELS 3  Xrotation Yrotation Zrotation
		JOINT right_knee
		{
			OFFSET	28.2	-396.7	2.2
			CHANNELS 3  Xrotation Yrotation Zrotation
			JOINT right_ankle
			{
				OFFSET	11.7	-411.3	35.4
				CHANNELS 3  Xrotation Yrotation Zrotation
				JOINT right_toes
				{
					OFFSET	0	-60	-88.6
					CHANNELS 3  Xrotation Yrotation Zrotation
					JOINT right_foot_ee
					{
						OFFSET	22.5	-16.5	-42.2
						CHANNELS 3  Xrotation Yrotation Zrotation
						End Site
						{
							OFFSET	1	0	0
						}
					}
				}
			}
		}
	}
}
MOTION
Frames: 14
Frame Time: 0.02
2800.94 716.97 -1473.77 -161.251680265 73.1125722788 161.74449741 1.51828 -0.46835 0.0397851 1.51816 -0.469932 0.00990145 1.51807 -0.463715 -0.0768299 1.51837 -0.470029 -0.00262889 1.88488 -0.40166 0.647989 1.88809 -1.25079 0.67894 -0.0 0.0 -0.0 5.61575 -8.8386 10.5359 -3.81983 -50.7692 46.7144 3.92037 -62.7374 2.39065 -13.0912 -0.640604 1.54276 -0.310238 -8.01463 -5.50515 -0.0 0.0 -0.0 8.08202 -11.3141 -15.2371 -47.8692 6.37688 -64.6483 1.11792 28.9762 -0.288876 28.5937 -0.107675 3.61337 2.09266 11.7563 -9.14599 0.0 0.0 0.0 4.06836 2.74084 -5.38193 -15.7119 0.322055 2.38211 29.22 -31.8962 -4.82686 2.63665 -0.0 -0.0 -0.0 0.0 -0.0 38.8753 -49.1577 8.34525 9.45292 0.502893 1.36083 -19.9552 26.0079 -3.64969 -11.0427 0.0 0.0 0.0 0.0 0.0 
2717.27555439 714.721 -1500.68738177 -164.644672167 65.4135302251 163.992443576 2.12988 -0.325441 0.198915 2.12984 -0.337439 0.177803 2.12878 -0.363196 0.116478 2.12892 -0.340243 0.172377 3.99972 2.85863 1.26183 4.015 3.85174 1.59629 -0.0 0.0 -0.0 3.94854 -7.24233 7.1899 -7.33035 -51.4618 51.7059 2.75667 -53.7751 1.39798 -16.5079 -0.864506 1.91836 0.210222 -4.63711 -0.547896 -0.0 0.0 -0.0 9.91629 -7.29647 -18.9727 -41.3291 8.12153 -63.4997 0.738804 20.1017 -0.130949 32.4651 0.0163917 4.09219 1.01672 14.6719 -0.590871 0.0 0.0 0.0 5.97566 1.38661 -7.04387 -23.7299 0.23274 3.60815 18.4836 -28.9173 -3.14497 1.94558 -0.0 -0.0 -0.0 0.0 -0.0 36.6378 -48.5611 10.2667 7.17363 0.36113 1.04044 -19.7359 29.4229 -3.77188 -10.1713 0.0 0.0 0.0 0.0 0.0 
2717.95249135 714.721 -1502.70714409 -163.793056522 66.7499678551 163.060891784 2.12988 -0.325441 0.198915 2.12984 -0.337439 0.177803 2.12878 -0.363196 0.116478 2.12892 -0.340243 0.172377 3.99972 2.85863 1.26183 4.015 3.85174 1.59629 -0.0 0.0 -0.0 3.94854 -7.24233 7.1899 -7.33035 -51.4618 51.7059 2.75667 -53.7751 1.39798 -16.5079 -0.864506 1.91836 0.210222 -4.63711 -0.547896 -0.0 0.0 -0.0 9.91629 -7.29647 -18.9727 -41.3291 8.12153 -63.4997 0.738804 20.1017 -0.130949 32.4651 0.0163917 4.09219 1.01672 14.6719 -0.590871 0.0 0.0 0.0 5.97566 1.38661 -7.04387 -23.7299 0.23274 3.60815 18.4836 -28.9173 -3.14497 1.94558 -0.0 -0.0 -0.0 0.0 -0.0 36.6378 -48.5611 10.2667 7.17363 0.36113 1.04044 -19.7359 29.4229 -3.77188 -10.1713 0.0 0.0 0.0 0.0 0.0 
2704.92903632 721.527 -1505.53658863 -163.153952919 65.4628717712 162.929055014 2.27774 -0.269625 0.0569898 2.2777 -0.272705 0.0397173 2.27751 -0.275478 -0.00754474 2.27762 -0.273213 0.0360569 3.60355 2.88607 0.858154 3.62095 4.26767 1.14967 -0.0 0.0 -0.0 3.66123 -7.64434 6.57397 -7.7928 -51.4273 52.4468 2.40426 -49.9746 1.12061 -16.8326 -0.886948 1.95335 0.369274 -3.23989 1.11233 -0.0 0.0 -0.0 10.0782 -6.16285 -19.3893 -39.7691 8.49201 -62.7576 0.753381 20.4657 -0.136002 32.6619 0.0235612 4.1163 1.07901 15.2465 -0.757448 0.0 0.0 0.0 6.12305 0.600551 -6.71722 -26.4813 0.162679 4.02453 17.3059 -28.1084 -2.93366 2.25906 -0.0 -0.0 -0.0 0.0 -0.0 36.5474 -48.9793 9.94079 4.88732 0.231888 0.713751 -20.2211 29.2781 -3.85725 -10.0156 0.0 0.0 0.0 0.0 0.0 
2681.26970309 731.739 -1506.27740587 -163.015000249 67.0441906479 162.983524545 1.86623 -0.0214291 -0.0972222 1.86624 -0.0151992 -0.0983888 1.86627 0.00257953 -0.0995224 1.86625 -0.0131705 -0.0986808 1.77432 2.6518 -0.591542 1.80125 5.1612 -0.425266 -0.0 0.0 -0.0 2.83127 -9.25691 4.7421 -9.80221 -51.0754 53.5725 1.66938 -39.5862 0.600822 -17.5374 -0.936333 2.02886 0.878884 0.627642 6.13599 -0.0 0.0 -0.0 10.2734 -3.47365 -19.9975 -35.8047 9.7036 -60.5149 0.822827 22.1759 -0.161255 32.7946 0.0284441 4.13255 1.31986 16.5365 -1.80139 0.0 0.0 0.0 7.40075 -2.47957 -5.68124 -32.7978 -0.0732237 4.96471 14.4683 -25.7395 -2.41927 3.48567 -0.0 -0.0 -0.0 0.0 -0.0 36.0446 -49.6033 8.4495 -0.215309 -0.008806 -0.0318679 -21.1693 29.0386 -4.02522 -8.99521 0.0 0.0 0.0 0.0 0.0 
2682.03147253 731.739 -1508.96195215 -162.073831426 68.274218953 161.966040452 1.86623 -0.0214291 -0.0972222 1.86624 -0.0151992 -0.0983888 1.86627 0.00257953 -0.0995224 1.86625 -0.0131705 -0.0986808 1.77432 2.6518 -0.591542 1.80125 5.1612 -0.425266 -0.0 0.0 -0.0 2.83127 -9.25691 4.7421 -9.80221 -51.0754 53.5725 1.66938 -39.5862 0.600822 -17.5374 -0.936333 2.02886 0.878884 0.627642 6.13599 -0.0 0.0 -0.0 10.2734 -3.47365 -19.9975 -35.8047 9.7036 -60.5149 0.822827 22.1759 -0.161255 32.7946 0.0284441 4.13255 1.31986 16.5365 -1.80139 0.0 0.0 0.0 7.40075 -2.47957 -5.68124 -32.7978 -0.0732237 4.96471 14.4683 -25.7395 -2.41927 3.48567 -0.0 -0.0 -0.0 0.0 -0.0 36.0446 -49.6033 8.4495 -0.215309 -0.008806 -0.0318679 -21.1693 29.0386 -4.02522 -8.99521 0.0 0.0 0.0 0.0 0.0 
2682.22404359 731.739 -1509.60619808 -161.830454174 68.569612796 161.70432212 1.86623 -0.0214291 -0.0972222 1.86624 -0.0151992 -0.0983888 1.86627 0.00257953 -0.0995224 1.86625 -0.0131705 -0.0986808 1.77432 2.6518 -0.591542 1.80125 5.1612 -0.425266 -0.0 0.0 -0.0 2.83127 -9.25691 4.7421 -9.80221 -51.0754 53.5725 1.66938 -39.5862 0.600822 -17.5374 -0.936333 2.02886 0.878884 0.627642 6.13599 -0.0 0.0 -0.0 10.2734 -3.47365 -19.9975 -35.8047 9.7036 -60.5149 0.822827 22.1759 -0.161255 32.7946 0.0284441 4.13255 1.31986 16.5365 -1.80139 0.0 0.0 0.0 7.40075 -2.47957 -5.68124 -32.7978 -0.0732237 4.96471 14.4683 -25.7395 -2.41927 3.48567 -0.0 -0.0 -0.0 0.0 -0.0 36.0446 -49.6033 8.4495 -0.215309 -0.008806 -0.0318679 -21.1693 29.0386 -4.02522 -8.99521 0.0 0.0 0.0 0.0 0.0 
2655.06474762 741.799 -1508.40498438 -162.04192449 69.5191563099 161.120372215 1.57533 0.190619 0.276771 1.57535 0.172621 0.28834 1.57624 0.116876 0.315084 1.57614 0.165171 0.292671 0.17986 2.35071 -1.79335 0.219114 5.65406 -1.6903 -0.0 0.0 -0.0 2.45327 -10.345 3.86537 -12.5187 -50.2308 54.3722 1.26399 -32.051 0.363065 -17.572 -0.938786 2.03256 0.889297 4.86286 7.90382 -0.0 0.0 -0.0 10.5933 -1.64094 -20.7816 -31.0389 11.5967 -57.5504 0.97377 25.7511 -0.222591 32.6888 0.0245467 4.11959 1.58969 15.2897 -4.16506 0.0 0.0 0.0 10.4426 -8.25677 -4.78451 -38.5143 -0.374964 5.78917 13.3787 -24.1869 -2.21024 5.54375 -0.0 -0.0 -0.0 0.0 -0.0 32.3637 -50.1474 5.96735 -1.88539 -0.0730255 -0.280114 -15.9633 29.662 -3.05577 -6.7354 0.0 0.0 0.0 0.0 0.0 
2655.56255621 741.799 -1510.438382 -161.355469129 70.2787197094 160.389408484 1.57533 0.190619 0.276771 1.57535 0.172621 0.28834 1.57624 0.116876 0.315084 1.57614 0.165171 0.292671 0.17986 2.35071 -1.79335 0.219114 5.65406 -1.6903 -0.0 0.0 -0.0 2.45327 -10.345 3.86537 -12.5187 -50.2308 54.3722 1.26399 -32.051 0.363065 -17.572 -0.938786 2.03256 0.889297 4.86286 7.90382 -0.0 0.0 -0.0 10.5933 -1.64094 -20.7816 -31.0389 11.5967 -57.5504 0.97377 25.7511 -0.222591 32.6888 0.0245467 4.11959 1.58969 15.2897 -4.16506 0.0 0.0 0.0 10.4426 -8.25677 -4.78451 -38.5143 -0.374964 5.78917 13.3787 -24.1869 -2.21024 5.54375 -0.0 -0.0 -0.0 0.0 -0.0 32.3637 -50.1474 5.96735 -1.88539 -0.0730255 -0.280114 -15.9633 29.662 -3.05577 -6.7354 0.0 0.0 0.0 0.0 0.0 
2645.42982778 740.802 -1515.5224279 -163.303602495 70.7679104988 162.692443517 1.57721 0.349315 0.334508 1.57721 0.327322 0.356057 1.57929 0.256579 0.409979 1.57919 0.318107 0.364313 -0.719083 2.28242 -1.90614 -0.681914 5.62902 -1.77224 -0.0 0.0 -0.0 2.07658 -9.98955 3.11728 -14.8969 -49.4566 54.2241 1.07831 -28.1088 0.269949 -17.6008 -0.940824 2.03563 0.802758 7.35513 8.3085 -0.0 0.0 -0.0 10.8355 -1.26547 -21.3086 -29.9635 11.9605 -56.9658 1.05811 27.6608 -0.260498 32.627 0.0222859 4.11203 1.78698 13.7748 -6.17069 0.0 0.0 0.0 12.4349 -12.2973 -4.11931 -43.0282 -0.670573 6.41692 12.8518 -22.7067 -2.0955 7.26161 -0.0 -0.0 -0.0 0.0 -0.0 29.5865 -50.4475 4.75296 -2.6567 -0.100233 -0.395359 -11.0356 29.1147 -2.08583 -5.24958 0.0 0.0 0.0 0.0 0.0 
2629.2633992 738.353 -1513.08243998 -167.265686138 70.5401109011 166.167032794 1.47429 0.272371 0.458412 1.47437 0.242649 0.474814 1.47643 0.150671 0.511493 1.47613 0.22956 0.481279 -1.56306 2.54866 -2.37484 -1.51502 6.48471 -2.19111 -0.0 0.0 -0.0 1.77257 -9.47871 2.53743 -16.9881 -48.9227 54.9079 0.995476 -26.2487 0.232107 -17.5816 -0.939461 2.03358 0.731507 8.84745 8.41999 -0.0 0.0 -0.0 10.6008 -1.26847 -20.8225 -29.059 12.1776 -56.0863 1.17375 30.1745 -0.316433 32.542 0.0191827 4.10161 2.1155 13.886 -8.34521 0.0 0.0 0.0 12.3093 -13.1376 -4.43128 -44.7173 -0.79382 6.64565 11.8316 -22.5769 -1.93541 8.08701 -0.0 -0.0 -0.0 0.0 -0.0 27.7443 -50.2343 5.04525 -3.67594 -0.133799 -0.54818 -8.24996 28.0964 -1.53155 -4.59781 0.0 0.0 0.0 0.0 0.0 
2608.93678706 741.3 -1510.7272594 -170.78376634 70.648308171 169.272255118 1.37211 0.0266222 0.555025 1.37228 -0.00874891 0.555594 1.37221 -0.11233 0.544191 1.3718 -0.0249768 0.555102 -2.79732 2.95637 -2.95783 -2.73589 7.67729 -2.66727 -0.0 0.0 -0.0 1.66185 -9.05769 2.35005 -18.98 -48.4743 55.8903 0.908344 -24.2258 0.19495 -17.5359 -0.936229 2.02871 0.623711 10.8657 8.49609 -0.0 0.0 -0.0 10.3276 -1.61705 -20.2376 -27.9624 12.3528 -55.1099 1.34941 33.7593 -0.409474 32.4195 0.014745 4.08661 2.57844 14.0247 -11.4359 0.0 0.0 0.0 12.0482 -13.8092 -4.20448 -47.0381 -0.974107 6.95393 10.5591 -22.4337 -1.73424 9.29212 -0.0 -0.0 -0.0 0.0 -0.0 25.9711 -49.8592 5.57795 -4.56369 -0.160814 -0.681744 -4.48434 26.7481 -0.812109 -3.74109 0.0 0.0 0.0 0.0 0.0 
2610.53120574 741.3 -1518.21731567 -169.62548835 72.8598570678 168.052889134 1.37211 0.0266222 0.555025 1.37228 -0.00874891 0.555594 1.37221 -0.11233 0.544191 1.3718 -0.0249768 0.555102 -2.79732 2.95637 -2.95783 -2.73589 7.67729 -2.66727 -0.0 0.0 -0.0 1.66185 -9.05769 2.35005 -18.98 -48.4743 55.8903 0.908344 -24.2258 0.19495 -17.5359 -0.936229 2.02871 0.623711 10.8657 8.49609 -0.0 0.0 -0.0 10.3276 -1.61705 -20.2376 -27.9624 12.3528 -55.1099 1.34941 33.7593 -0.409474 32.4195 0.014745 4.08661 2.57844 14.0247 -11.4359 0.0 0.0 0.0 12.0482 -13.8092 -4.20448 -47.0381 -0.974107 6.95393 10.5591 -22.4337 -1.73424 9.29212 -0.0 -0.0 -0.0 0.0 -0.0 25.9711 -49.8592 5.57795 -4.56369 -0.160814 -0.681744 -4.48434 26.7481 -0.812109 -3.74109 0.0 0.0 0.0 0.0 0.0 
2588.79965333 741.653 -1519.73101734 -172.420737691 72.7526068457 170.881778083 1.29881 -0.330151 0.694253 1.299 -0.373658 0.671839 1.29456 -0.493346 0.589576 1.29429 -0.394044 0.660089 -4.41374 3.55211 -3.79737 -4.33477 9.39127 -3.31524 -0.0 0.0 -0.0 1.47194 -8.72103 1.99258 -21.5825 -47.7231 56.2384 0.803443 -21.7026 0.154013 -17.4699 -0.931562 2.02166 0.463071 13.6817 8.54115 -0.0 0.0 -0.0 10.0675 -2.62203 -19.6421 -26.835 12.4618 -54.593 1.62664 38.8585 -0.573796 32.22 0.00757831 4.06213 3.2265 14.1465 -15.8491 0.0 0.0 0.0 11.7252 -14.7474 -3.5423 -50.3184 -1.25001 7.37685 8.80462 -22.2451 -1.45374 11.0215 -0.0 -0.0 -0.0 0.0 -0.0 21.7246 -49.4257 3.50698 -5.92157 -0.198121 -0.886788 0.812567 25.1431 0.142358 -2.54384 0.0 0.0 0.0 0.0 0.0 
